PathFileType	4	(X/Y/Z)	C:\Users\WrightLab\Desktop\Jo\P4V132.trc
DataRate	CameraRate	NumFrames	NumMarkers	Units	OrigDataRate	OrigDataStartFrame	OrigNumFrames
100.00	100.00	       25	19	mm	100.00	65	       512
Frame#	Time	Headset_Front			Headset_Back			Headset_Left			Headset_Right			Left_Shoulder			Right_Shoulder			Sternum			C7			Left Elbow			Right Elbow			Left Wrist			Right Wrist			Left ASIS			Right ASIS			S2			Left Knee			Right Knee			Left Ankle			Right Ankle			
		X1	Y1	Z1	X2	Y2	Z2	X3	Y3	Z3	X4	Y4	Z4	X5	Y5	Z5	X6	Y6	Z6	X7	Y7	Z7	X8	Y8	Z8	X9	Y9	Z9	X10	Y10	Z10	X11	Y11	Z11	X12	Y12	Z12	X13	Y13	Z13	X14	Y14	Z14	X15	Y15	Z15	X16	Y16	Z16	X17	Y17	Z17	X18	Y18	Z18	X19	Y19	Z19	

65	0.640	-1.17261	1097.09277	2058.91040	48.51271	1607.62695	2002.92249							-75.78796	1570.58362	1909.31384	200.82849	1575.04822	1997.78479	-74.31300	1742.34790	1906.74609				-308.60553	1472.57239	1683.49866	379.16714	1244.22571	2048.03516	-334.58597	1502.75732	1369.98926	484.06400	998.22449	1900.13452				250.48018	1074.69824	1964.06580				-2.80281	614.58765	1722.09351	205.45595	593.41162	2061.60083				92.27695	107.58979	2174.58228	
66	0.650	2.26907	1095.36963	2050.48975	51.63008	1606.16089	1995.28271							-73.81273	1569.69165	1904.24939	203.86707	1573.72192	1990.05615	-72.33107	1740.33105	1899.63696				-307.19809	1471.16980	1677.10925	382.66684	1243.29321	2039.51746	-335.82306	1500.94861	1364.71338	486.98367	998.36780	1887.99512				253.73500	1073.25256	1956.17334				1.17152	612.18793	1717.71826	207.46614	592.47089	2057.45020				92.18578	107.94412	2174.14526	
67	0.660	5.42695	1094.33618	2041.75171	54.38602	1604.88281	1987.94238							-71.33159	1568.75659	1897.42236	206.45027	1572.42419	1981.87756	-69.83470	1739.04517	1892.49365				-305.42917	1470.15955	1671.84546	386.64639	1242.27087	2029.29700	-336.13760	1498.90344	1358.98254	490.63712	998.46411	1876.75940				257.28757	1071.89563	1948.95166				4.95869	609.07800	1713.71265	209.51811	591.90302	2053.06592	94.60677	94.42890	1750.46008	92.10607	107.89328	2173.64624	
68	0.670	9.66616	1093.30615	2034.66248	57.21500	1603.80908	1980.74158							-69.24400	1567.07385	1889.81360	209.57439	1571.47327	1973.56543	-67.60622	1737.94263	1886.85303				-303.83029	1468.63647	1665.77356	390.16995	1241.10925	2019.18140	-335.97769	1496.77417	1353.00854	493.86215	998.70020	1866.05566				260.23706	1070.33740	1939.84204				8.52759	606.12927	1708.92517	211.34822	591.25317	2047.94946	101.71275	95.01676	1729.40564	92.02579	108.56469	2172.68066	
69	0.680	12.69405	1092.64856	2026.83240	59.64543	1602.27405	1972.68213							-66.77961	1566.14441	1884.01208	211.91257	1570.43176	1964.93726	-65.98489	1736.77563	1879.38660				-302.76672	1467.27576	1659.55322	392.91953	1240.59717	2010.93481	-336.90399	1495.00342	1347.55359	495.07440	999.21545	1854.32715				263.13791	1069.10291	1931.41174				12.50947	602.89838	1704.89392	213.68146	590.30176	2042.73267	109.63242	94.22088	1706.55469	92.00648	109.19515	2172.07129	
70	0.690	15.58756	1090.73523	2017.90430	62.15464	1601.02356	1965.79602							-65.08292	1564.70044	1877.77332	214.81775	1569.00037	1957.24756	-63.99677	1735.28906	1873.22864				-301.81589	1466.71008	1654.48718	396.06958	1239.15857	2000.41248	-336.90842	1494.15564	1342.45203	498.30283	998.56506	1842.83386				266.29486	1067.72009	1922.69739				16.36945	599.88098	1700.93823	214.73624	589.94763	2037.28052	118.04700	92.41557	1683.04346	91.69184	109.81775	2171.19312	
71	0.700	18.91329	1090.46997	2010.77405	64.76385	1598.89294	1957.46948							-62.49076	1562.57019	1868.63940	216.50964	1567.32019	1948.51404	-62.36461	1733.88354	1866.82166				-300.40439	1464.85425	1648.46045	399.61731	1238.00598	1990.51514	-337.59811	1493.02783	1335.92651	500.99973	997.54254	1832.81958				269.07809	1066.12158	1913.52185				20.39384	595.91193	1697.97571	216.82208	589.33105	2031.92627	125.46793	91.72312	1661.43982	91.30974	110.10323	2170.76001	
72	0.710	21.61429	1087.74683	2000.17969	66.86791	1597.40808	1950.08154							-59.68616	1560.79529	1861.79053	219.38486	1566.08777	1940.96045	-60.19324	1731.83105	1858.77100				-299.15302	1462.77551	1641.12085	403.05530	1236.66187	1980.59631	-337.68661	1492.98120	1329.87292	503.60068	997.05280	1821.06689				272.35916	1064.55725	1905.36853				24.08503	592.33264	1694.50269	219.10115	587.71161	2024.52625	132.43069	93.06079	1641.77686	90.65402	111.94711	2169.63452	
73	0.720	24.45112	1087.42859	1993.58301	68.89462	1595.73999	1942.19543							-57.99567	1558.40881	1853.64685	221.65504	1564.67053	1931.16785	-58.82226	1730.42957	1852.95544				-298.21237	1461.38098	1635.40991	405.51132	1235.12769	1970.12488	-338.60391	1491.08923	1324.54846	506.30533	996.88885	1808.91309				275.30331	1063.35364	1896.46423				27.88006	589.35529	1689.24658	220.52838	588.15881	2019.29297	139.39359	93.73866	1623.18811	90.87199	113.02827	2169.03027	
74	0.730				71.44135	1593.86609	1934.45337							-56.32810	1557.36914	1847.21021	223.66316	1563.30200	1922.60657	-57.40247	1729.08618	1845.13696				-297.53714	1460.20764	1629.15356	408.00287	1233.61804	1959.79480	-339.11420	1489.20129	1318.97559	508.64862	996.72058	1799.17725				277.98218	1061.84534	1886.69617				31.69417	586.67700	1683.42175	222.89459	586.73517	2012.04248	144.87001	93.27003	1606.11133	90.55882	115.13856	2168.67700	
75	0.740	29.92052	1083.36279	1975.98608	73.46249	1592.21887	1925.22229							-54.76868	1555.16943	1839.14160	225.88455	1561.88098	1915.25610	-55.13640	1727.28821	1837.44092				-296.53061	1458.13025	1622.10669	410.48270	1232.84204	1950.07556	-340.37689	1487.37439	1310.82568	510.75842	996.34918	1786.42346				281.02307	1060.65210	1878.36194				35.21157	584.15277	1675.49817	225.38544	586.41882	2005.57983	150.52971	94.07343	1592.74658	90.94530	116.69102	2167.43604	
76	0.750	32.87600	1081.31116	1964.83521	75.64001	1590.74524	1917.73816							-52.58912	1553.39893	1831.79431	227.78610	1560.01526	1905.30298	-53.98163	1725.38159	1830.05811				-295.60089	1455.92615	1615.59241	413.42847	1231.42102	1939.10229	-341.09000	1484.76550	1303.37671	512.64551	995.61072	1774.10510				283.33090	1059.79993	1868.79553				37.73222	582.52856	1666.84827	227.02922	586.25427	1997.78882	156.06444	93.54632	1582.40320	91.37992	118.54807	2165.81396	
77	0.760	35.27940	1080.62854	1957.94788	77.24992	1589.50061	1909.60095							-51.45866	1552.19446	1823.03296	229.58809	1558.70850	1895.91345	-52.69950	1723.94507	1822.80090				-295.74899	1454.80640	1609.74963	415.99060	1230.24707	1928.78052	-341.51025	1484.45898	1298.06042	514.52881	994.88275	1761.83289				285.94662	1058.76904	1858.53101				41.30369	580.90350	1657.95593	231.09297	584.79156	1990.08618	160.05586	92.30598	1573.31763	92.20007	120.35686	2164.76245	
78	0.770	37.36448	1079.45349	1948.69385	79.46368	1587.90869	1900.03809							-49.68624	1550.77454	1815.89771	231.74689	1557.70789	1887.41028	-51.10931	1722.35779	1815.20605				-294.82437	1452.69263	1602.57178	418.45175	1228.43933	1917.41943	-342.54504	1483.91516	1291.27722	516.04041	994.76129	1749.18848				288.69623	1058.19043	1849.31116				44.39112	580.57141	1648.11047	234.67738	585.17853	1983.45544	164.01762	90.42496	1567.03088	93.26891	122.09647	2162.67798	
79	0.780	41.05581	1077.96155	1939.60986	80.96484	1586.71069	1892.15222							-48.09248	1549.44873	1806.83264	233.44501	1556.76697	1878.45068	-49.93876	1720.81006	1806.47925				-294.26401	1450.86169	1594.97302	420.69403	1227.63062	1906.33521	-342.26535	1482.02686	1285.30920	517.56494	994.62000	1736.23657	-18.80445	1039.00818	1717.72534	291.06708	1057.18909	1839.47595				46.97904	580.11322	1636.69373	239.09549	585.73639	1976.10327	167.10115	88.94644	1562.69189	93.76158	125.30109	2161.97217	
80	0.790	44.19569	1076.24121	1928.79211	82.46766	1585.78333	1883.30713							-46.95217	1548.38306	1798.19336	235.05748	1555.35535	1867.85669	-48.39368	1720.46033	1799.51477				-294.49213	1449.04175	1588.74536	422.16815	1227.26636	1895.89502	-343.63501	1480.44470	1278.32361	519.36078	993.14209	1727.90051	-16.89143	1037.46912	1710.77039	293.95233	1056.44885	1829.97400				50.02639	579.73120	1625.62036	242.81100	584.56842	1966.19055	169.68019	87.08099	1560.79761	94.52218	128.02147	2160.35376	
81	0.800	46.77456	1075.91357	1920.81616	83.94246	1584.78711	1873.54553							-46.12970	1547.19385	1791.10010	236.41791	1554.59155	1857.84546	-48.02241	1719.42456	1791.68164				-293.56375	1447.91797	1580.71924	424.21750	1226.21436	1884.40747	-344.08499	1479.81042	1271.46118	520.32013	993.29797	1716.38477	-14.39922	1036.81616	1698.83459	296.59952	1055.65784	1817.79773				53.05799	579.93842	1615.36316	246.30273	585.11627	1958.52014	171.24133	85.42382	1560.20483	95.43822	131.29678	2159.43286	
82	0.810	50.13743	1074.81396	1910.02417	85.23388	1583.84607	1864.74463							-44.87453	1546.22766	1782.10095	237.73254	1553.60205	1847.51477	-46.96305	1718.99194	1782.64539				-294.49689	1446.38147	1573.88831	425.81879	1225.29541	1873.18616	-345.46411	1478.91455	1263.47375	521.28125	993.77417	1703.50586	-12.74193	1036.70044	1688.42871	298.76184	1055.07739	1806.50513				55.76287	579.30804	1604.27234	250.57597	585.81952	1949.97534	172.70082	83.11388	1561.29358	96.92594	134.78319	2156.68848	
83	0.820	53.73092	1073.16589	1898.72290	86.58021	1582.79846	1856.24817							-44.08722	1544.88928	1772.86377	238.70369	1553.53479	1837.63306	-45.96264	1718.19775	1774.96851				-294.08673	1444.51331	1566.61194	427.05820	1225.99524	1862.66785	-345.52521	1477.25867	1257.66797	521.91071	993.45123	1691.65930	-10.19072	1036.19580	1679.39563	301.31177	1054.81873	1794.96143				57.60944	579.25757	1592.03711	255.24623	584.94989	1939.37073	174.61945	82.79324	1562.24524	98.82792	137.87840	2154.21265	
84	0.830	56.28149	1072.77698	1888.47131	87.58659	1582.18445	1847.42004							-43.03390	1543.84155	1764.19812	240.07680	1552.94080	1827.16931	-44.63672	1717.58716	1766.04810				-294.88397	1444.03406	1560.43140	428.87830	1224.97278	1850.42773	-346.68118	1476.67200	1249.41968	523.06995	992.86755	1680.73218	-7.92524	1035.32568	1669.30688	303.91913	1054.57288	1782.46985				59.66484	577.72363	1582.61853	258.91580	584.65332	1928.07703	176.17482	82.93776	1561.89478	100.16278	142.36334	2152.33569	
85	0.840	59.06118	1072.31763	1878.21765	88.42430	1581.31689	1837.60559							-43.03053	1543.41528	1756.48792	240.93231	1552.53638	1817.38159	-44.83062	1717.76208	1757.69421				-295.69592	1442.64478	1553.39148	430.45209	1224.50964	1839.45630	-348.43829	1476.05310	1241.58069	524.11151	992.63177	1667.69446	-5.82386	1035.71338	1658.38977	306.91525	1054.62646	1773.04858				61.37768	576.42822	1572.70007	264.38974	586.18097	1919.09851	179.09775	84.38193	1560.09985	102.19638	146.66364	2149.90918	
86	0.850	61.28144	1071.75598	1866.61353	88.41833	1580.69653	1828.74329							-42.70135	1542.71594	1748.10071	241.53857	1552.74377	1807.60291	-44.05948	1717.28979	1747.47266				-295.33051	1441.46985	1543.92249	431.08948	1225.11096	1828.55469	-349.06155	1474.72974	1235.98401	524.38159	992.79877	1657.25732	-3.19616	1035.66199	1646.60425	309.32486	1054.33215	1760.30408				62.25396	574.04681	1565.07922	270.14352	586.18152	1908.18213	180.43823	86.07789	1557.50098	104.87428	151.66322	2146.57324	
87	0.860	63.88652	1071.38623	1854.74988	89.29839	1580.19116	1818.45142							-42.82075	1542.22986	1739.07800	242.18929	1552.55103	1798.15991	-43.55226	1717.78259	1737.73828				-296.14261	1440.11804	1536.82227	431.85059	1225.22974	1818.01709	-350.47546	1474.43665	1227.80151	524.69336	992.91711	1646.43872	-1.48479	1036.12231	1635.18591	311.54413	1054.51672	1747.16748				63.47295	571.83917	1556.32800	276.73724	586.79291	1896.01367	181.91623	87.19325	1554.87244	108.03297	156.68015	2143.03931	
88	0.870	66.36371	1072.73682	1844.79956	89.23486	1580.25745	1810.22205							-42.32286	1541.99097	1729.17139	242.80627	1553.18738	1788.40649	-43.72037	1718.27979	1729.45471				-295.77689	1438.88721	1527.72400	432.82376	1225.57654	1806.16846	-351.56442	1474.03381	1219.51953	525.41425	993.12830	1634.74219	0.55966	1036.44250	1621.93359	314.11530	1055.55957	1736.18762				64.59068	570.96783	1548.43384	282.77731	587.29224	1882.31873	182.31422	87.73800	1552.48767	110.69221	163.85254	2139.05273	
89	0.880	69.56741	1072.85486	1833.16223	90.31017	1580.40881	1798.82813							-42.23311	1542.36157	1720.36316	243.40372	1553.67993	1778.87830	-43.22166	1719.04199	1719.81189				-296.68155	1437.59375	1519.77576	433.22128	1226.02563	1794.52173	-352.14838	1473.52271	1211.03516	525.11841	994.18048	1623.05334	1.65461	1037.16528	1612.47693	316.25443	1055.58838	1723.84766				65.91833	570.21588	1540.78650	290.74307	587.41858	1868.41101	182.39716	88.66502	1550.18958	114.87486	170.48096	2132.92603	
